<mxfile host="65bd71144e">
    <diagram id="o3GcUPDtDXJafmyDneuA" name="SIngle Region">
        <mxGraphModel dx="1420" dy="797" grid="1" gridSize="10" guides="1" tooltips="1" connect="1" arrows="1" fold="1" page="1" pageScale="1" pageWidth="850" pageHeight="1100" math="0" shadow="0">
            <root>
                <mxCell id="0"/>
                <mxCell id="1" parent="0"/>
                <mxCell id="27" value="&lt;font style=&quot;font-size: 20px;&quot;&gt;Hybrid&amp;nbsp; Cloud Architecture: Azure Hub and Spoke Design&lt;/font&gt;" style="text;html=1;align=center;verticalAlign=middle;resizable=0;points=[];autosize=1;strokeColor=none;fillColor=none;fontSize=15;fontFamily=Comic Sans MS;" vertex="1" parent="1">
                    <mxGeometry x="145" y="65" width="560" height="40" as="geometry"/>
                </mxCell>
                <mxCell id="31" value="Hub-spoke" parent="0"/>
                <mxCell id="4" style="edgeStyle=none;html=1;exitX=0.75;exitY=0;exitDx=0;exitDy=0;sketch=1;curveFitting=1;jiggle=2;disableMultiStroke=1;startArrow=oval;startFill=1;endArrow=oval;endFill=1;" edge="1" parent="31" source="2" target="3">
                    <mxGeometry relative="1" as="geometry"/>
                </mxCell>
                <mxCell id="6" style="edgeStyle=none;html=1;exitX=0.25;exitY=0;exitDx=0;exitDy=0;sketch=1;curveFitting=1;jiggle=2;disableMultiStroke=1;startArrow=oval;startFill=1;endArrow=oval;endFill=1;" edge="1" parent="31" source="2" target="5">
                    <mxGeometry relative="1" as="geometry"/>
                </mxCell>
                <mxCell id="2" value="" style="rounded=0;whiteSpace=wrap;html=1;sketch=1;curveFitting=1;jiggle=2;disableMultiStroke=1;fillStyle=solid;fillColor=#dae8fc;strokeColor=#6c8ebf;" vertex="1" parent="31">
                    <mxGeometry x="310" y="390" width="240" height="220" as="geometry"/>
                </mxCell>
                <mxCell id="3" value="" style="rounded=0;whiteSpace=wrap;html=1;sketch=1;curveFitting=1;jiggle=2;disableMultiStroke=1;fillColor=#dae8fc;strokeColor=#6c8ebf;fillStyle=solid;" vertex="1" parent="31">
                    <mxGeometry x="490" y="170" width="160" height="100" as="geometry"/>
                </mxCell>
                <mxCell id="5" value="" style="rounded=0;whiteSpace=wrap;html=1;sketch=1;curveFitting=1;jiggle=2;disableMultiStroke=1;fillColor=#dae8fc;strokeColor=#6c8ebf;fillStyle=solid;" vertex="1" parent="31">
                    <mxGeometry x="220" y="170" width="160" height="100" as="geometry"/>
                </mxCell>
                <mxCell id="11" value="&lt;font style=&quot;font-size: 15px;&quot; face=&quot;Comic Sans MS&quot;&gt;&lt;b&gt;Spoke-1&lt;br&gt;10.1.0.0/16&lt;/b&gt;&lt;/font&gt;" style="text;html=1;align=center;verticalAlign=middle;resizable=0;points=[];autosize=1;strokeColor=none;fillColor=none;" vertex="1" parent="31">
                    <mxGeometry x="235" y="180" width="110" height="50" as="geometry"/>
                </mxCell>
                <mxCell id="12" value="&lt;font style=&quot;font-size: 15px;&quot; face=&quot;Comic Sans MS&quot;&gt;&lt;b&gt;Spoke-2&lt;br&gt;10.2.0.0/16&lt;/b&gt;&lt;/font&gt;" style="text;html=1;align=center;verticalAlign=middle;resizable=0;points=[];autosize=1;strokeColor=none;fillColor=none;" vertex="1" parent="31">
                    <mxGeometry x="515" y="190" width="110" height="50" as="geometry"/>
                </mxCell>
                <mxCell id="13" value="&lt;font style=&quot;font-size: 15px;&quot; face=&quot;Comic Sans MS&quot;&gt;&lt;b&gt;HUB&lt;br&gt;10.0.0.0/16&lt;/b&gt;&lt;/font&gt;" style="text;html=1;align=center;verticalAlign=middle;resizable=0;points=[];autosize=1;strokeColor=none;fillColor=none;" vertex="1" parent="31">
                    <mxGeometry x="375" y="400" width="110" height="50" as="geometry"/>
                </mxCell>
                <mxCell id="16" value="" style="aspect=fixed;html=1;points=[];align=center;image;fontSize=12;image=img/lib/azure2/networking/Virtual_Network_Gateways.svg;fillStyle=solid;fontFamily=Comic Sans MS;" vertex="1" parent="31">
                    <mxGeometry x="343" y="560" width="32" height="42.46" as="geometry"/>
                </mxCell>
                <mxCell id="18" style="edgeStyle=none;sketch=1;disableMultiStroke=1;html=1;exitX=0;exitY=0.75;exitDx=0;exitDy=0;entryX=1;entryY=0.75;entryDx=0;entryDy=0;fontFamily=Comic Sans MS;fontSize=15;startArrow=oval;startFill=1;endArrow=oval;endFill=1;" edge="1" parent="31">
                    <mxGeometry relative="1" as="geometry">
                        <mxPoint x="310" y="533" as="sourcePoint"/>
                        <mxPoint x="550" y="533" as="targetPoint"/>
                    </mxGeometry>
                </mxCell>
                <mxCell id="19" style="edgeStyle=none;sketch=1;disableMultiStroke=1;html=1;exitX=0;exitY=0.5;exitDx=0;exitDy=0;entryX=1;entryY=0.5;entryDx=0;entryDy=0;fontFamily=Comic Sans MS;fontSize=15;startArrow=oval;startFill=1;endArrow=oval;endFill=1;" edge="1" parent="31" source="2" target="2">
                    <mxGeometry relative="1" as="geometry"/>
                </mxCell>
                <mxCell id="20" style="edgeStyle=none;sketch=1;disableMultiStroke=1;html=1;exitX=0;exitY=0.25;exitDx=0;exitDy=0;entryX=1;entryY=0.25;entryDx=0;entryDy=0;fontFamily=Comic Sans MS;fontSize=15;startArrow=oval;startFill=1;endArrow=oval;endFill=1;" edge="1" parent="31" source="2" target="2">
                    <mxGeometry relative="1" as="geometry"/>
                </mxCell>
                <mxCell id="21" value="&lt;font face=&quot;Comic Sans MS&quot;&gt;&lt;b&gt;&lt;span style=&quot;font-size: 15px;&quot;&gt;gateway&lt;br&gt;&lt;/span&gt;Subnet&lt;/b&gt;&lt;/font&gt;" style="text;html=1;align=center;verticalAlign=middle;resizable=0;points=[];autosize=1;strokeColor=none;fillColor=none;" vertex="1" parent="31">
                    <mxGeometry x="395" y="556.23" width="80" height="50" as="geometry"/>
                </mxCell>
                <mxCell id="22" value="" style="aspect=fixed;html=1;points=[];align=center;image;fontSize=12;image=img/lib/azure2/networking/Virtual_Network_Gateways.svg;fillStyle=solid;fontFamily=Comic Sans MS;" vertex="1" parent="31">
                    <mxGeometry x="475" y="560" width="32" height="42.46" as="geometry"/>
                </mxCell>
                <mxCell id="25" value="VPN&lt;br&gt;GW" style="text;html=1;align=center;verticalAlign=middle;resizable=0;points=[];autosize=1;strokeColor=none;fillColor=none;fontSize=15;fontFamily=Comic Sans MS;" vertex="1" parent="31">
                    <mxGeometry x="330" y="525" width="50" height="50" as="geometry"/>
                </mxCell>
                <mxCell id="26" value="ExR&lt;br&gt;GW" style="text;html=1;align=center;verticalAlign=middle;resizable=0;points=[];autosize=1;strokeColor=none;fillColor=none;fontSize=15;fontFamily=Comic Sans MS;" vertex="1" parent="31">
                    <mxGeometry x="465" y="525" width="50" height="50" as="geometry"/>
                </mxCell>
                <mxCell id="35" value="" style="aspect=fixed;html=1;points=[];align=center;image;fontSize=12;image=img/lib/azure2/compute/Virtual_Machine.svg;fillStyle=solid;fontFamily=Comic Sans MS;" vertex="1" parent="31">
                    <mxGeometry x="280" y="230" width="39" height="36.17" as="geometry"/>
                </mxCell>
                <mxCell id="36" value="" style="aspect=fixed;html=1;points=[];align=center;image;fontSize=12;image=img/lib/azure2/compute/Virtual_Machine.svg;fillStyle=solid;fontFamily=Comic Sans MS;" vertex="1" parent="31">
                    <mxGeometry x="550" y="230" width="39" height="36.17" as="geometry"/>
                </mxCell>
                <mxCell id="32" value="S2S Branch" parent="0"/>
                <mxCell id="8" style="edgeStyle=none;html=1;exitX=0.25;exitY=1;exitDx=0;exitDy=0;sketch=1;curveFitting=1;jiggle=2;disableMultiStroke=1;startArrow=oval;startFill=1;endArrow=oval;endFill=1;" edge="1" parent="32" source="2" target="7">
                    <mxGeometry relative="1" as="geometry"/>
                </mxCell>
                <mxCell id="7" value="" style="rounded=0;whiteSpace=wrap;html=1;sketch=1;curveFitting=1;jiggle=2;disableMultiStroke=1;fillStyle=solid;fillColor=#fff2cc;strokeColor=#d6b656;" vertex="1" parent="32">
                    <mxGeometry x="210" y="730" width="150" height="140" as="geometry"/>
                </mxCell>
                <mxCell id="14" value="&lt;font face=&quot;Comic Sans MS&quot; style=&quot;font-size: 15px;&quot;&gt;&lt;b&gt;&lt;font style=&quot;font-size: 15px;&quot;&gt;Branch&lt;br&gt;&lt;/font&gt;10.100.0.0/16&lt;/b&gt;&lt;/font&gt;" style="text;html=1;align=center;verticalAlign=middle;resizable=0;points=[];autosize=1;strokeColor=none;fillColor=none;" vertex="1" parent="32">
                    <mxGeometry x="220" y="740" width="130" height="50" as="geometry"/>
                </mxCell>
                <mxCell id="24" value="s2S&lt;br&gt;VPN" style="text;html=1;align=center;verticalAlign=middle;resizable=0;points=[];autosize=1;strokeColor=none;fillColor=none;fontSize=15;fontFamily=Comic Sans MS;" vertex="1" parent="32">
                    <mxGeometry x="290" y="657.86" width="50" height="50" as="geometry"/>
                </mxCell>
                <mxCell id="33" value="HQ-Branch" parent="0"/>
                <mxCell id="10" style="edgeStyle=none;html=1;exitX=0.75;exitY=1;exitDx=0;exitDy=0;sketch=1;curveFitting=1;jiggle=2;disableMultiStroke=1;startArrow=oval;startFill=1;endArrow=oval;endFill=1;" edge="1" parent="33" source="2" target="9">
                    <mxGeometry relative="1" as="geometry"/>
                </mxCell>
                <mxCell id="9" value="" style="rounded=0;whiteSpace=wrap;html=1;sketch=1;curveFitting=1;jiggle=2;disableMultiStroke=1;fillStyle=solid;fillColor=#e1d5e7;strokeColor=#9673a6;" vertex="1" parent="33">
                    <mxGeometry x="500" y="720" width="130" height="150" as="geometry"/>
                </mxCell>
                <mxCell id="15" value="&lt;b&gt;&lt;font face=&quot;Comic Sans MS&quot;&gt;&lt;span style=&quot;font-size: 15px;&quot;&gt;HQ&lt;br&gt;&lt;/span&gt;&lt;/font&gt;10.101.0.0/16&lt;/b&gt;" style="text;html=1;align=center;verticalAlign=middle;resizable=0;points=[];autosize=1;strokeColor=none;fillColor=none;" vertex="1" parent="33">
                    <mxGeometry x="515" y="740" width="100" height="50" as="geometry"/>
                </mxCell>
                <mxCell id="23" value="" style="aspect=fixed;html=1;points=[];align=center;image;fontSize=12;image=img/lib/azure2/networking/ExpressRoute_Circuits.svg;fillStyle=solid;fontFamily=Comic Sans MS;" vertex="1" parent="33">
                    <mxGeometry x="545" y="660" width="50" height="45.71" as="geometry"/>
                </mxCell>
                <mxCell id="34" value="Flows" parent="0"/>
                <mxCell id="28" style="edgeStyle=none;disableMultiStroke=1;html=1;exitX=0.302;exitY=-0.02;exitDx=0;exitDy=0;entryX=0.25;entryY=1;entryDx=0;entryDy=0;fontFamily=Comic Sans MS;fontSize=20;startArrow=classic;startFill=1;endArrow=classic;endFill=1;curved=1;dashed=1;strokeWidth=2;strokeColor=#00994D;exitPerimeter=0;" edge="1" parent="34" source="7" target="5">
                    <mxGeometry relative="1" as="geometry">
                        <Array as="points">
                            <mxPoint x="460" y="590"/>
                        </Array>
                    </mxGeometry>
                </mxCell>
                <mxCell id="29" style="edgeStyle=none;curved=1;sketch=0;disableMultiStroke=1;html=1;exitX=0.75;exitY=1;exitDx=0;exitDy=0;entryX=0.25;entryY=1;entryDx=0;entryDy=0;dashed=1;strokeColor=#FF0000;strokeWidth=2;fontFamily=Comic Sans MS;fontSize=20;startArrow=classic;startFill=1;endArrow=classic;endFill=1;flowAnimation=1;" edge="1" parent="34" source="5" target="3">
                    <mxGeometry relative="1" as="geometry">
                        <Array as="points">
                            <mxPoint x="430" y="510"/>
                        </Array>
                    </mxGeometry>
                </mxCell>
                <mxCell id="30" style="edgeStyle=none;curved=1;sketch=0;disableMultiStroke=1;html=1;exitX=1;exitY=0.5;exitDx=0;exitDy=0;entryX=0;entryY=0.5;entryDx=0;entryDy=0;dashed=1;strokeColor=#FF0000;strokeWidth=2;fontFamily=Comic Sans MS;fontSize=20;startArrow=classic;startFill=1;endArrow=classic;endFill=1;" edge="1" parent="34" source="7" target="9">
                    <mxGeometry relative="1" as="geometry">
                        <Array as="points">
                            <mxPoint x="430" y="410"/>
                        </Array>
                    </mxGeometry>
                </mxCell>
            </root>
        </mxGraphModel>
    </diagram>
    <diagram id="fAtzP2GOP-0-PPZq1dsF" name="Multi-region">
        <mxGraphModel dx="1106" dy="845" grid="1" gridSize="10" guides="1" tooltips="1" connect="1" arrows="1" fold="1" page="1" pageScale="1" pageWidth="850" pageHeight="1100" math="0" shadow="0">
            <root>
                <mxCell id="0"/>
                <mxCell id="1" parent="0"/>
                <mxCell id="VmTzIxvrcaTmvpchPADn-1" style="edgeStyle=none;html=1;exitX=0.75;exitY=0;exitDx=0;exitDy=0;sketch=1;curveFitting=1;jiggle=2;disableMultiStroke=1;startArrow=oval;startFill=1;endArrow=oval;endFill=1;" edge="1" source="VmTzIxvrcaTmvpchPADn-3" target="VmTzIxvrcaTmvpchPADn-4" parent="1">
                    <mxGeometry relative="1" as="geometry"/>
                </mxCell>
                <mxCell id="VmTzIxvrcaTmvpchPADn-2" style="edgeStyle=none;html=1;exitX=0.25;exitY=0;exitDx=0;exitDy=0;sketch=1;curveFitting=1;jiggle=2;disableMultiStroke=1;startArrow=oval;startFill=1;endArrow=oval;endFill=1;" edge="1" source="VmTzIxvrcaTmvpchPADn-3" target="VmTzIxvrcaTmvpchPADn-5" parent="1">
                    <mxGeometry relative="1" as="geometry"/>
                </mxCell>
                <mxCell id="VmTzIxvrcaTmvpchPADn-3" value="" style="rounded=0;whiteSpace=wrap;html=1;sketch=1;curveFitting=1;jiggle=2;disableMultiStroke=1;fillStyle=solid;fillColor=#dae8fc;strokeColor=#6c8ebf;" vertex="1" parent="1">
                    <mxGeometry x="300" y="410" width="240" height="220" as="geometry"/>
                </mxCell>
                <mxCell id="VmTzIxvrcaTmvpchPADn-4" value="" style="rounded=0;whiteSpace=wrap;html=1;sketch=1;curveFitting=1;jiggle=2;disableMultiStroke=1;fillColor=#dae8fc;strokeColor=#6c8ebf;fillStyle=solid;" vertex="1" parent="1">
                    <mxGeometry x="480" y="190" width="160" height="100" as="geometry"/>
                </mxCell>
                <mxCell id="VmTzIxvrcaTmvpchPADn-5" value="" style="rounded=0;whiteSpace=wrap;html=1;sketch=1;curveFitting=1;jiggle=2;disableMultiStroke=1;fillColor=#dae8fc;strokeColor=#6c8ebf;fillStyle=solid;" vertex="1" parent="1">
                    <mxGeometry x="210" y="190" width="160" height="100" as="geometry"/>
                </mxCell>
                <mxCell id="VmTzIxvrcaTmvpchPADn-6" value="&lt;font style=&quot;font-size: 15px;&quot; face=&quot;Comic Sans MS&quot;&gt;&lt;b&gt;Spoke-1&lt;br&gt;10.1.0.0/16&lt;/b&gt;&lt;/font&gt;" style="text;html=1;align=center;verticalAlign=middle;resizable=0;points=[];autosize=1;strokeColor=none;fillColor=none;" vertex="1" parent="1">
                    <mxGeometry x="225" y="200" width="110" height="50" as="geometry"/>
                </mxCell>
                <mxCell id="VmTzIxvrcaTmvpchPADn-7" value="&lt;font style=&quot;font-size: 15px;&quot; face=&quot;Comic Sans MS&quot;&gt;&lt;b&gt;Spoke-2&lt;br&gt;10.2.0.0/16&lt;/b&gt;&lt;/font&gt;" style="text;html=1;align=center;verticalAlign=middle;resizable=0;points=[];autosize=1;strokeColor=none;fillColor=none;" vertex="1" parent="1">
                    <mxGeometry x="505" y="210" width="110" height="50" as="geometry"/>
                </mxCell>
                <mxCell id="VmTzIxvrcaTmvpchPADn-8" value="&lt;font style=&quot;font-size: 15px;&quot; face=&quot;Comic Sans MS&quot;&gt;&lt;b&gt;HUB&lt;br&gt;10.0.0.0/16&lt;/b&gt;&lt;/font&gt;" style="text;html=1;align=center;verticalAlign=middle;resizable=0;points=[];autosize=1;strokeColor=none;fillColor=none;" vertex="1" parent="1">
                    <mxGeometry x="365" y="420" width="110" height="50" as="geometry"/>
                </mxCell>
                <mxCell id="VmTzIxvrcaTmvpchPADn-9" value="" style="aspect=fixed;html=1;points=[];align=center;image;fontSize=12;image=img/lib/azure2/networking/Virtual_Network_Gateways.svg;fillStyle=solid;fontFamily=Comic Sans MS;" vertex="1" parent="1">
                    <mxGeometry x="333" y="580" width="32" height="42.46" as="geometry"/>
                </mxCell>
                <mxCell id="VmTzIxvrcaTmvpchPADn-10" style="edgeStyle=none;sketch=1;disableMultiStroke=1;html=1;exitX=0;exitY=0.75;exitDx=0;exitDy=0;entryX=1;entryY=0.75;entryDx=0;entryDy=0;fontFamily=Comic Sans MS;fontSize=15;startArrow=oval;startFill=1;endArrow=oval;endFill=1;" edge="1" parent="1">
                    <mxGeometry relative="1" as="geometry">
                        <mxPoint x="300" y="553" as="sourcePoint"/>
                        <mxPoint x="540" y="553" as="targetPoint"/>
                    </mxGeometry>
                </mxCell>
                <mxCell id="VmTzIxvrcaTmvpchPADn-11" style="edgeStyle=none;sketch=1;disableMultiStroke=1;html=1;exitX=0;exitY=0.5;exitDx=0;exitDy=0;entryX=1;entryY=0.5;entryDx=0;entryDy=0;fontFamily=Comic Sans MS;fontSize=15;startArrow=oval;startFill=1;endArrow=oval;endFill=1;" edge="1" source="VmTzIxvrcaTmvpchPADn-3" target="VmTzIxvrcaTmvpchPADn-3" parent="1">
                    <mxGeometry relative="1" as="geometry"/>
                </mxCell>
                <mxCell id="VmTzIxvrcaTmvpchPADn-12" style="edgeStyle=none;sketch=1;disableMultiStroke=1;html=1;exitX=0;exitY=0.25;exitDx=0;exitDy=0;entryX=1;entryY=0.25;entryDx=0;entryDy=0;fontFamily=Comic Sans MS;fontSize=15;startArrow=oval;startFill=1;endArrow=oval;endFill=1;" edge="1" source="VmTzIxvrcaTmvpchPADn-3" target="VmTzIxvrcaTmvpchPADn-3" parent="1">
                    <mxGeometry relative="1" as="geometry"/>
                </mxCell>
                <mxCell id="VmTzIxvrcaTmvpchPADn-13" value="&lt;font face=&quot;Comic Sans MS&quot;&gt;&lt;b&gt;&lt;span style=&quot;font-size: 15px;&quot;&gt;gateway&lt;br&gt;&lt;/span&gt;Subnet&lt;/b&gt;&lt;/font&gt;" style="text;html=1;align=center;verticalAlign=middle;resizable=0;points=[];autosize=1;strokeColor=none;fillColor=none;" vertex="1" parent="1">
                    <mxGeometry x="385" y="576.23" width="80" height="50" as="geometry"/>
                </mxCell>
                <mxCell id="VmTzIxvrcaTmvpchPADn-14" value="" style="aspect=fixed;html=1;points=[];align=center;image;fontSize=12;image=img/lib/azure2/networking/Virtual_Network_Gateways.svg;fillStyle=solid;fontFamily=Comic Sans MS;" vertex="1" parent="1">
                    <mxGeometry x="465" y="580" width="32" height="42.46" as="geometry"/>
                </mxCell>
                <mxCell id="VmTzIxvrcaTmvpchPADn-15" value="VPN&lt;br&gt;GW" style="text;html=1;align=center;verticalAlign=middle;resizable=0;points=[];autosize=1;strokeColor=none;fillColor=none;fontSize=15;fontFamily=Comic Sans MS;" vertex="1" parent="1">
                    <mxGeometry x="320" y="545" width="50" height="50" as="geometry"/>
                </mxCell>
                <mxCell id="VmTzIxvrcaTmvpchPADn-16" value="ExR&lt;br&gt;GW" style="text;html=1;align=center;verticalAlign=middle;resizable=0;points=[];autosize=1;strokeColor=none;fillColor=none;fontSize=15;fontFamily=Comic Sans MS;" vertex="1" parent="1">
                    <mxGeometry x="455" y="545" width="50" height="50" as="geometry"/>
                </mxCell>
                <mxCell id="VmTzIxvrcaTmvpchPADn-17" value="" style="aspect=fixed;html=1;points=[];align=center;image;fontSize=12;image=img/lib/azure2/compute/Virtual_Machine.svg;fillStyle=solid;fontFamily=Comic Sans MS;" vertex="1" parent="1">
                    <mxGeometry x="270" y="250" width="39" height="36.17" as="geometry"/>
                </mxCell>
                <mxCell id="VmTzIxvrcaTmvpchPADn-18" value="" style="aspect=fixed;html=1;points=[];align=center;image;fontSize=12;image=img/lib/azure2/compute/Virtual_Machine.svg;fillStyle=solid;fontFamily=Comic Sans MS;" vertex="1" parent="1">
                    <mxGeometry x="540" y="250" width="39" height="36.17" as="geometry"/>
                </mxCell>
                <mxCell id="zfgJV3BJ68CpYeqMznih-1" style="edgeStyle=none;html=1;exitX=0.75;exitY=0;exitDx=0;exitDy=0;sketch=1;curveFitting=1;jiggle=2;disableMultiStroke=1;startArrow=oval;startFill=1;endArrow=oval;endFill=1;dashed=1;strokeColor=#000000;strokeWidth=2;fontFamily=Comic Sans MS;fontSize=20;curved=1;" edge="1" source="zfgJV3BJ68CpYeqMznih-3" target="zfgJV3BJ68CpYeqMznih-4" parent="1">
                    <mxGeometry relative="1" as="geometry"/>
                </mxCell>
                <mxCell id="zfgJV3BJ68CpYeqMznih-2" style="edgeStyle=none;html=1;exitX=0.25;exitY=0;exitDx=0;exitDy=0;sketch=1;curveFitting=1;jiggle=2;disableMultiStroke=1;startArrow=oval;startFill=1;endArrow=oval;endFill=1;dashed=1;strokeColor=#000000;strokeWidth=2;fontFamily=Comic Sans MS;fontSize=20;curved=1;" edge="1" source="zfgJV3BJ68CpYeqMznih-3" target="zfgJV3BJ68CpYeqMznih-5" parent="1">
                    <mxGeometry relative="1" as="geometry"/>
                </mxCell>
                <mxCell id="zfgJV3BJ68CpYeqMznih-3" value="" style="rounded=0;whiteSpace=wrap;html=1;sketch=1;curveFitting=1;jiggle=2;disableMultiStroke=1;fillStyle=solid;fillColor=#dae8fc;strokeColor=#000000;fontFamily=Comic Sans MS;fontSize=20;" vertex="1" parent="1">
                    <mxGeometry x="900" y="410" width="240" height="220" as="geometry"/>
                </mxCell>
                <mxCell id="zfgJV3BJ68CpYeqMznih-4" value="" style="rounded=0;whiteSpace=wrap;html=1;sketch=1;curveFitting=1;jiggle=2;disableMultiStroke=1;fillColor=#dae8fc;strokeColor=#000000;fillStyle=solid;fontFamily=Comic Sans MS;fontSize=20;" vertex="1" parent="1">
                    <mxGeometry x="1080" y="190" width="160" height="100" as="geometry"/>
                </mxCell>
                <mxCell id="zfgJV3BJ68CpYeqMznih-5" value="" style="rounded=0;whiteSpace=wrap;html=1;sketch=1;curveFitting=1;jiggle=2;disableMultiStroke=1;fillColor=#dae8fc;strokeColor=#000000;fillStyle=solid;fontFamily=Comic Sans MS;fontSize=20;" vertex="1" parent="1">
                    <mxGeometry x="810" y="190" width="160" height="100" as="geometry"/>
                </mxCell>
                <mxCell id="zfgJV3BJ68CpYeqMznih-6" value="&lt;font style=&quot;font-size: 15px;&quot; face=&quot;Comic Sans MS&quot;&gt;&lt;b&gt;Spoke-1&lt;br&gt;10.1.0.0/16&lt;/b&gt;&lt;/font&gt;" style="text;html=1;align=center;verticalAlign=middle;resizable=0;points=[];autosize=1;strokeColor=#000000;fillColor=none;fillStyle=solid;fontFamily=Comic Sans MS;fontSize=20;" vertex="1" parent="1">
                    <mxGeometry x="825" y="195" width="110" height="60" as="geometry"/>
                </mxCell>
                <mxCell id="zfgJV3BJ68CpYeqMznih-7" value="&lt;font style=&quot;font-size: 15px;&quot; face=&quot;Comic Sans MS&quot;&gt;&lt;b&gt;Spoke-2&lt;br&gt;10.2.0.0/16&lt;/b&gt;&lt;/font&gt;" style="text;html=1;align=center;verticalAlign=middle;resizable=0;points=[];autosize=1;strokeColor=#000000;fillColor=none;fillStyle=solid;fontFamily=Comic Sans MS;fontSize=20;" vertex="1" parent="1">
                    <mxGeometry x="1105" y="205" width="110" height="60" as="geometry"/>
                </mxCell>
                <mxCell id="zfgJV3BJ68CpYeqMznih-8" value="&lt;font style=&quot;font-size: 15px;&quot; face=&quot;Comic Sans MS&quot;&gt;&lt;b&gt;HUB&lt;br&gt;10.0.0.0/16&lt;/b&gt;&lt;/font&gt;" style="text;html=1;align=center;verticalAlign=middle;resizable=0;points=[];autosize=1;strokeColor=#000000;fillColor=none;fillStyle=solid;fontFamily=Comic Sans MS;fontSize=20;" vertex="1" parent="1">
                    <mxGeometry x="965" y="415" width="110" height="60" as="geometry"/>
                </mxCell>
                <mxCell id="zfgJV3BJ68CpYeqMznih-9" value="" style="aspect=fixed;html=1;points=[];align=center;image;fontSize=12;image=img/lib/azure2/networking/Virtual_Network_Gateways.svg;fillStyle=solid;fontFamily=Comic Sans MS;strokeColor=#000000;" vertex="1" parent="1">
                    <mxGeometry x="933" y="580" width="32" height="42.46" as="geometry"/>
                </mxCell>
                <mxCell id="zfgJV3BJ68CpYeqMznih-10" style="edgeStyle=none;sketch=1;disableMultiStroke=1;html=1;exitX=0;exitY=0.75;exitDx=0;exitDy=0;entryX=1;entryY=0.75;entryDx=0;entryDy=0;fontFamily=Comic Sans MS;fontSize=15;startArrow=oval;startFill=1;endArrow=oval;endFill=1;dashed=1;strokeColor=#000000;strokeWidth=2;curved=1;" edge="1" parent="1">
                    <mxGeometry relative="1" as="geometry">
                        <mxPoint x="900" y="553" as="sourcePoint"/>
                        <mxPoint x="1140" y="553" as="targetPoint"/>
                    </mxGeometry>
                </mxCell>
                <mxCell id="zfgJV3BJ68CpYeqMznih-11" style="edgeStyle=none;sketch=1;disableMultiStroke=1;html=1;exitX=0;exitY=0.5;exitDx=0;exitDy=0;entryX=1;entryY=0.5;entryDx=0;entryDy=0;fontFamily=Comic Sans MS;fontSize=15;startArrow=oval;startFill=1;endArrow=oval;endFill=1;dashed=1;strokeColor=#000000;strokeWidth=2;curved=1;" edge="1" source="zfgJV3BJ68CpYeqMznih-3" target="zfgJV3BJ68CpYeqMznih-3" parent="1">
                    <mxGeometry relative="1" as="geometry"/>
                </mxCell>
                <mxCell id="zfgJV3BJ68CpYeqMznih-12" style="edgeStyle=none;sketch=1;disableMultiStroke=1;html=1;exitX=0;exitY=0.25;exitDx=0;exitDy=0;entryX=1;entryY=0.25;entryDx=0;entryDy=0;fontFamily=Comic Sans MS;fontSize=15;startArrow=oval;startFill=1;endArrow=oval;endFill=1;dashed=1;strokeColor=#000000;strokeWidth=2;curved=1;" edge="1" source="zfgJV3BJ68CpYeqMznih-3" target="zfgJV3BJ68CpYeqMznih-3" parent="1">
                    <mxGeometry relative="1" as="geometry"/>
                </mxCell>
                <mxCell id="zfgJV3BJ68CpYeqMznih-13" value="&lt;font face=&quot;Comic Sans MS&quot;&gt;&lt;b&gt;&lt;span style=&quot;font-size: 15px;&quot;&gt;gateway&lt;br&gt;&lt;/span&gt;Subnet&lt;/b&gt;&lt;/font&gt;" style="text;html=1;align=center;verticalAlign=middle;resizable=0;points=[];autosize=1;strokeColor=#000000;fillColor=none;fillStyle=solid;fontFamily=Comic Sans MS;fontSize=20;" vertex="1" parent="1">
                    <mxGeometry x="980" y="571.23" width="90" height="60" as="geometry"/>
                </mxCell>
                <mxCell id="zfgJV3BJ68CpYeqMznih-14" value="" style="aspect=fixed;html=1;points=[];align=center;image;fontSize=12;image=img/lib/azure2/networking/Virtual_Network_Gateways.svg;fillStyle=solid;fontFamily=Comic Sans MS;strokeColor=#000000;" vertex="1" parent="1">
                    <mxGeometry x="1065" y="580" width="32" height="42.46" as="geometry"/>
                </mxCell>
                <mxCell id="zfgJV3BJ68CpYeqMznih-15" value="VPN&lt;br&gt;GW" style="text;html=1;align=center;verticalAlign=middle;resizable=0;points=[];autosize=1;strokeColor=#000000;fillColor=none;fontSize=15;fontFamily=Comic Sans MS;fillStyle=solid;" vertex="1" parent="1">
                    <mxGeometry x="920" y="545" width="50" height="50" as="geometry"/>
                </mxCell>
                <mxCell id="zfgJV3BJ68CpYeqMznih-16" value="ExR&lt;br&gt;GW" style="text;html=1;align=center;verticalAlign=middle;resizable=0;points=[];autosize=1;strokeColor=#000000;fillColor=none;fontSize=15;fontFamily=Comic Sans MS;fillStyle=solid;" vertex="1" parent="1">
                    <mxGeometry x="1055" y="545" width="50" height="50" as="geometry"/>
                </mxCell>
                <mxCell id="zfgJV3BJ68CpYeqMznih-17" value="" style="aspect=fixed;html=1;points=[];align=center;image;fontSize=12;image=img/lib/azure2/compute/Virtual_Machine.svg;fillStyle=solid;fontFamily=Comic Sans MS;strokeColor=#000000;" vertex="1" parent="1">
                    <mxGeometry x="870" y="250" width="39" height="36.17" as="geometry"/>
                </mxCell>
                <mxCell id="zfgJV3BJ68CpYeqMznih-18" value="" style="aspect=fixed;html=1;points=[];align=center;image;fontSize=12;image=img/lib/azure2/compute/Virtual_Machine.svg;fillStyle=solid;fontFamily=Comic Sans MS;strokeColor=#000000;" vertex="1" parent="1">
                    <mxGeometry x="1140" y="250" width="39" height="36.17" as="geometry"/>
                </mxCell>
            </root>
        </mxGraphModel>
    </diagram>
</mxfile>